<svg xmlns="http://www.w3.org/2000/svg" xmlns:xlink="http://www.w3.org/1999/xlink" width="500" zoomAndPan="magnify" viewBox="0 0 375 374.999991" height="500" preserveAspectRatio="xMidYMid meet" version="1.0"><defs><g/><clipPath id="13787c36ff"><path d="M 177.203125 103.042969 L 197.453125 103.042969 L 197.453125 132.292969 L 177.203125 132.292969 Z M 177.203125 103.042969 " clip-rule="nonzero"/></clipPath><clipPath id="4a1431763d"><path d="M 177.203125 177.714844 L 197.453125 177.714844 L 197.453125 206.964844 L 177.203125 206.964844 Z M 177.203125 177.714844 " clip-rule="nonzero"/></clipPath></defs><g fill="#1c2120" fill-opacity="1"><g transform="translate(157.28179, 195.322437)"><g><path d="M 28.65625 -80.484375 C 31.9375 -80.484375 34.53125 -80.128906 36.4375 -79.421875 C 38.34375 -78.710938 40.300781 -77.6875 42.3125 -76.34375 C 43.957031 -75.300781 45.226562 -74.78125 46.125 -74.78125 C 46.789062 -74.78125 47.3125 -75.171875 47.6875 -75.953125 C 48.0625 -76.734375 48.359375 -77.984375 48.578125 -79.703125 L 51.15625 -79.703125 C 50.78125 -75.367188 50.59375 -67.753906 50.59375 -56.859375 L 48.015625 -56.859375 C 47.566406 -62.910156 45.832031 -68.003906 42.8125 -72.140625 C 39.789062 -76.285156 35.40625 -78.359375 29.65625 -78.359375 C 25.632812 -78.359375 22.351562 -77.144531 19.8125 -74.71875 C 17.269531 -72.289062 16 -69.175781 16 -65.375 C 16 -62.539062 16.648438 -60.078125 17.953125 -57.984375 C 19.265625 -55.890625 20.925781 -54.097656 22.9375 -52.609375 C 24.957031 -51.117188 27.832031 -49.21875 31.5625 -46.90625 L 34.8125 -44.890625 C 39.507812 -41.972656 43.21875 -39.414062 45.9375 -37.21875 C 48.664062 -35.019531 50.851562 -32.5 52.5 -29.65625 C 54.144531 -26.820312 54.96875 -23.503906 54.96875 -19.703125 C 54.96875 -12.910156 52.726562 -7.664062 48.25 -3.96875 C 43.769531 -0.28125 38.097656 1.5625 31.234375 1.5625 C 27.648438 1.5625 24.71875 1.1875 22.4375 0.4375 C 20.164062 -0.300781 17.984375 -1.304688 15.890625 -2.578125 C 14.253906 -3.617188 12.988281 -4.140625 12.09375 -4.140625 C 11.414062 -4.140625 10.890625 -3.75 10.515625 -2.96875 C 10.148438 -2.1875 9.851562 -0.9375 9.625 0.78125 L 7.046875 0.78125 C 7.347656 -3.320312 7.5 -12.273438 7.5 -26.078125 L 10.078125 -26.078125 C 10.597656 -18.546875 12.460938 -12.425781 15.671875 -7.71875 C 18.878906 -3.019531 23.804688 -0.671875 30.453125 -0.671875 C 34.472656 -0.671875 37.898438 -1.921875 40.734375 -4.421875 C 43.578125 -6.921875 45 -10.632812 45 -15.5625 C 45 -19.738281 43.597656 -23.28125 40.796875 -26.1875 C 38.003906 -29.101562 33.582031 -32.390625 27.53125 -36.046875 C 23.132812 -38.734375 19.570312 -41.117188 16.84375 -43.203125 C 14.125 -45.296875 11.90625 -47.816406 10.1875 -50.765625 C 8.46875 -53.710938 7.609375 -57.164062 7.609375 -61.125 C 7.609375 -67.382812 9.625 -72.175781 13.65625 -75.5 C 17.6875 -78.820312 22.6875 -80.484375 28.65625 -80.484375 Z M 28.65625 -80.484375 "/></g></g></g><g clip-path="url(#13787c36ff)"><path fill="#ffffff" d="M 177.207031 103.042969 L 197.453125 103.042969 L 197.453125 132.292969 L 177.207031 132.292969 L 177.207031 103.042969 " fill-opacity="1" fill-rule="nonzero"/></g><g clip-path="url(#4a1431763d)"><path fill="#ffffff" d="M 177.207031 177.714844 L 197.453125 177.714844 L 197.453125 206.964844 L 177.207031 206.964844 L 177.207031 177.714844 " fill-opacity="1" fill-rule="nonzero"/></g><g fill="#1c2120" fill-opacity="1"><g transform="translate(162.711541, 199.589049)"><g><path d="M -3.046875 25.703125 C 4.054688 25.492188 9.304688 22.851562 12.703125 17.78125 C 16.097656 12.71875 17.796875 4.15625 17.796875 -7.90625 L 17.796875 -91.546875 C 17.796875 -95.398438 17.488281 -98.1875 16.875 -99.90625 C 16.269531 -101.632812 15.128906 -102.800781 13.453125 -103.40625 C 11.785156 -104.019531 9.125 -104.425781 5.46875 -104.625 L 5.46875 -107.671875 C 9.726562 -107.367188 16.117188 -107.21875 24.640625 -107.21875 C 32.953125 -107.21875 39.488281 -107.367188 44.25 -107.671875 L 44.25 -104.625 C 40.601562 -104.425781 37.941406 -104.019531 36.265625 -103.40625 C 34.597656 -102.800781 33.457031 -101.632812 32.84375 -99.90625 C 32.238281 -98.1875 31.9375 -95.398438 31.9375 -91.546875 L 31.9375 -35.890625 C 31.9375 -27.273438 31.785156 -19.644531 31.484375 -13 C 31.179688 -6.363281 30.46875 -0.765625 29.34375 3.796875 C 27.519531 11.203125 23.796875 17.1875 18.171875 21.75 C 12.546875 26.3125 5.472656 28.59375 -3.046875 28.59375 Z M -3.046875 25.703125 "/></g></g></g><g fill="#1c2120" fill-opacity="1"><g transform="translate(81.715362, 262.28928)"><g><path d="M 8.816406 -15.089844 L 8.816406 -4.203125 C 8.816406 -1.832031 7.5 -0.28125 5.152344 -0.28125 C 3.46875 -0.28125 2.089844 -1.054688 1.59375 -2.285156 C 1.722656 -2.261719 1.832031 -2.242188 1.960938 -2.242188 C 2.609375 -2.242188 3.082031 -2.714844 3.082031 -3.363281 C 3.082031 -4.03125 2.609375 -4.503906 1.960938 -4.503906 C 1.273438 -4.503906 0.777344 -4.03125 0.777344 -3.363281 C 0.777344 -1.292969 2.800781 0.214844 5.582031 0.214844 C 8.535156 0.214844 10.734375 -1.59375 10.734375 -4.808594 L 10.734375 -15.089844 Z M 8.816406 -15.089844 "/></g></g></g><g fill="#1c2120" fill-opacity="1"><g transform="translate(94.365706, 262.28928)"><g><path d="M 12.695312 0 L 14.699219 0 L 8.105469 -15.089844 L 7.265625 -15.089844 L 0.648438 0 L 1.25 0 L 3.210938 -4.460938 L 10.757812 -4.460938 Z M 3.382812 -4.894531 L 6.984375 -13.105469 L 10.5625 -4.894531 Z M 3.382812 -4.894531 "/></g></g></g><g fill="#1c2120" fill-opacity="1"><g transform="translate(109.709897, 262.28928)"><g><path d="M 7.285156 -8.363281 C 5.152344 -9.203125 2.996094 -10.085938 2.996094 -11.941406 C 2.996094 -13.578125 4.675781 -14.828125 6.917969 -14.828125 C 8.644531 -14.828125 10.042969 -14.140625 10.625 -13.128906 L 10.539062 -13.128906 C 9.894531 -13.128906 9.417969 -12.675781 9.417969 -12.050781 C 9.417969 -11.425781 9.894531 -10.992188 10.539062 -10.992188 C 11.121094 -10.992188 11.574219 -11.425781 11.574219 -12.050781 C 11.574219 -13.902344 9.460938 -15.304688 6.726562 -15.304688 C 3.730469 -15.304688 1.507812 -13.621094 1.507812 -11.230469 C 1.507812 -8.621094 4.136719 -7.566406 6.316406 -6.683594 C 8.621094 -5.777344 10.625 -4.9375 10.625 -3.125 C 10.625 -1.445312 8.878906 -0.257812 6.421875 -0.257812 C 4.417969 -0.257812 2.757812 -1.035156 2.132812 -2.199219 L 2.285156 -2.199219 C 2.867188 -2.199219 3.320312 -2.652344 3.320312 -3.277344 C 3.320312 -3.902344 2.867188 -4.332031 2.285156 -4.332031 C 1.636719 -4.332031 1.164062 -3.902344 1.164062 -3.277344 C 1.164062 -1.292969 3.601562 0.214844 6.683594 0.214844 C 9.871094 0.214844 12.15625 -1.402344 12.15625 -3.921875 C 12.15625 -6.488281 9.785156 -7.414062 7.285156 -8.363281 Z M 7.285156 -8.363281 "/></g></g></g><g fill="#1c2120" fill-opacity="1"><g transform="translate(122.877456, 262.28928)"><g><path d="M 15.21875 -15.089844 L 9.699219 -5.972656 L 4.160156 -15.089844 L 2.070312 -15.089844 L 2.070312 0 L 2.585938 0 L 2.585938 -14.140625 L 8.773438 -3.921875 L 9.117188 -3.921875 L 15.304688 -14.140625 L 15.304688 0 L 17.222656 0 L 17.222656 -15.089844 Z M 15.21875 -15.089844 "/></g></g></g><g fill="#1c2120" fill-opacity="1"><g transform="translate(142.165453, 262.28928)"><g><path d="M 2.070312 0 L 3.988281 0 L 3.988281 -15.089844 L 2.070312 -15.089844 Z M 2.070312 0 "/></g></g></g><g fill="#1c2120" fill-opacity="1"><g transform="translate(148.199682, 262.28928)"><g><path d="M 13.96875 -15.089844 L 13.96875 -2.585938 L 3.6875 -15.089844 L 2.070312 -15.089844 L 2.070312 0 L 2.585938 0 L 2.585938 -13.535156 L 13.753906 0 L 14.484375 0 L 14.484375 -15.089844 Z M 13.96875 -15.089844 "/></g></g></g><g fill="#1c2120" fill-opacity="1"><g transform="translate(164.729172, 262.28928)"><g/></g></g><g fill="#1c2120" fill-opacity="1"><g transform="translate(170.526348, 262.28928)"><g><path d="M 7.285156 -8.363281 C 5.152344 -9.203125 2.996094 -10.085938 2.996094 -11.941406 C 2.996094 -13.578125 4.675781 -14.828125 6.917969 -14.828125 C 8.644531 -14.828125 10.042969 -14.140625 10.625 -13.128906 L 10.539062 -13.128906 C 9.894531 -13.128906 9.417969 -12.675781 9.417969 -12.050781 C 9.417969 -11.425781 9.894531 -10.992188 10.539062 -10.992188 C 11.121094 -10.992188 11.574219 -11.425781 11.574219 -12.050781 C 11.574219 -13.902344 9.460938 -15.304688 6.726562 -15.304688 C 3.730469 -15.304688 1.507812 -13.621094 1.507812 -11.230469 C 1.507812 -8.621094 4.136719 -7.566406 6.316406 -6.683594 C 8.621094 -5.777344 10.625 -4.9375 10.625 -3.125 C 10.625 -1.445312 8.878906 -0.257812 6.421875 -0.257812 C 4.417969 -0.257812 2.757812 -1.035156 2.132812 -2.199219 L 2.285156 -2.199219 C 2.867188 -2.199219 3.320312 -2.652344 3.320312 -3.277344 C 3.320312 -3.902344 2.867188 -4.332031 2.285156 -4.332031 C 1.636719 -4.332031 1.164062 -3.902344 1.164062 -3.277344 C 1.164062 -1.292969 3.601562 0.214844 6.683594 0.214844 C 9.871094 0.214844 12.15625 -1.402344 12.15625 -3.921875 C 12.15625 -6.488281 9.785156 -7.414062 7.285156 -8.363281 Z M 7.285156 -8.363281 "/></g></g></g><g fill="#1c2120" fill-opacity="1"><g transform="translate(183.693908, 262.28928)"><g><path d="M 8.921875 0.214844 C 13.429688 0.214844 16.792969 -3.125 16.792969 -7.542969 C 16.792969 -11.964844 13.429688 -15.304688 8.921875 -15.304688 C 4.441406 -15.304688 1.078125 -11.964844 1.078125 -7.542969 C 1.078125 -3.125 4.441406 0.214844 8.921875 0.214844 Z M 8.921875 -0.214844 C 5.410156 -0.214844 3.082031 -3.125 3.082031 -7.542969 C 3.082031 -11.964844 5.410156 -14.871094 8.921875 -14.871094 C 12.457031 -14.871094 14.785156 -11.964844 14.785156 -7.542969 C 14.785156 -3.125 12.457031 -0.214844 8.921875 -0.214844 Z M 8.921875 -0.214844 "/></g></g></g><g fill="#1c2120" fill-opacity="1"><g transform="translate(201.559553, 262.28928)"><g><path d="M 3.988281 -0.429688 L 3.988281 -7.4375 L 10.757812 -7.4375 L 10.757812 -7.867188 L 3.988281 -7.867188 L 3.988281 -14.65625 L 12.480469 -14.65625 L 12.480469 -15.089844 L 2.070312 -15.089844 L 2.070312 0 L 12.695312 0 L 12.695312 -0.429688 Z M 3.988281 -0.429688 "/></g></g></g><g fill="#1c2120" fill-opacity="1"><g transform="translate(215.115021, 262.28928)"><g><path d="M 13.96875 -15.089844 L 13.96875 -2.585938 L 3.6875 -15.089844 L 2.070312 -15.089844 L 2.070312 0 L 2.585938 0 L 2.585938 -13.535156 L 13.753906 0 L 14.484375 0 L 14.484375 -15.089844 Z M 13.96875 -15.089844 "/></g></g></g><g fill="#1c2120" fill-opacity="1"><g transform="translate(231.644512, 262.28928)"><g><path d="M 8.816406 -15.089844 L 8.816406 -4.203125 C 8.816406 -1.832031 7.5 -0.28125 5.152344 -0.28125 C 3.46875 -0.28125 2.089844 -1.054688 1.59375 -2.285156 C 1.722656 -2.261719 1.832031 -2.242188 1.960938 -2.242188 C 2.609375 -2.242188 3.082031 -2.714844 3.082031 -3.363281 C 3.082031 -4.03125 2.609375 -4.503906 1.960938 -4.503906 C 1.273438 -4.503906 0.777344 -4.03125 0.777344 -3.363281 C 0.777344 -1.292969 2.800781 0.214844 5.582031 0.214844 C 8.535156 0.214844 10.734375 -1.59375 10.734375 -4.808594 L 10.734375 -15.089844 Z M 8.816406 -15.089844 "/></g></g></g><g fill="#1c2120" fill-opacity="1"><g transform="translate(244.294856, 262.28928)"><g><path d="M 8.921875 0.214844 C 13.429688 0.214844 16.792969 -3.125 16.792969 -7.542969 C 16.792969 -11.964844 13.429688 -15.304688 8.921875 -15.304688 C 4.441406 -15.304688 1.078125 -11.964844 1.078125 -7.542969 C 1.078125 -3.125 4.441406 0.214844 8.921875 0.214844 Z M 8.921875 -0.214844 C 5.410156 -0.214844 3.082031 -3.125 3.082031 -7.542969 C 3.082031 -11.964844 5.410156 -14.871094 8.921875 -14.871094 C 12.457031 -14.871094 14.785156 -11.964844 14.785156 -7.542969 C 14.785156 -3.125 12.457031 -0.214844 8.921875 -0.214844 Z M 8.921875 -0.214844 "/></g></g></g><g fill="#1c2120" fill-opacity="1"><g transform="translate(262.160501, 262.28928)"><g><path d="M 12.675781 -15.089844 L 0.582031 -15.089844 L 0.582031 -14.65625 L 5.691406 -14.65625 L 5.691406 0 L 7.609375 0 L 7.609375 -14.65625 L 12.675781 -14.65625 Z M 12.675781 -15.089844 "/></g></g></g><g fill="#1c2120" fill-opacity="1"><g transform="translate(275.414246, 262.28928)"><g><path d="M 8.921875 0.214844 C 13.429688 0.214844 16.792969 -3.125 16.792969 -7.542969 C 16.792969 -11.964844 13.429688 -15.304688 8.921875 -15.304688 C 4.441406 -15.304688 1.078125 -11.964844 1.078125 -7.542969 C 1.078125 -3.125 4.441406 0.214844 8.921875 0.214844 Z M 8.921875 -0.214844 C 5.410156 -0.214844 3.082031 -3.125 3.082031 -7.542969 C 3.082031 -11.964844 5.410156 -14.871094 8.921875 -14.871094 C 12.457031 -14.871094 14.785156 -11.964844 14.785156 -7.542969 C 14.785156 -3.125 12.457031 -0.214844 8.921875 -0.214844 Z M 8.921875 -0.214844 "/></g></g></g><g fill="#1c2120" fill-opacity="1"><g transform="translate(152.561883, 279.1646)"><g><path d="M 4.359375 0.121094 C 6.84375 0.121094 7.464844 -1.386719 7.515625 -4.082031 L 7.527344 -6.855469 C 7.527344 -7.589844 7.625 -7.832031 8.136719 -7.832031 L 8.136719 -8.039062 L 6.480469 -8.039062 L 6.480469 -7.832031 C 6.980469 -7.832031 7.089844 -7.589844 7.089844 -6.855469 L 7.078125 -4.082031 C 7.027344 -1.691406 6.429688 -0.328125 4.507812 -0.328125 C 2.570312 -0.328125 1.816406 -1.425781 1.816406 -4.082031 L 1.828125 -6.855469 C 1.828125 -7.589844 1.9375 -7.832031 2.4375 -7.832031 L 2.4375 -8.039062 L 0.367188 -8.039062 L 0.367188 -7.832031 C 0.863281 -7.832031 0.972656 -7.589844 0.972656 -6.855469 L 0.972656 -4.082031 C 0.988281 -1.351562 1.707031 0.121094 4.359375 0.121094 Z M 4.359375 0.121094 "/></g></g></g><g fill="#1c2120" fill-opacity="1"><g transform="translate(161.060585, 279.1646)"><g><path d="M 0.242188 0 L 2.582031 0 L 2.582031 -0.207031 C 1.609375 -0.207031 1.644531 -0.351562 2.09375 -0.9375 L 4.09375 -3.605469 L 6.066406 -0.949219 C 6.492188 -0.351562 6.527344 -0.207031 5.566406 -0.207031 L 5.566406 0 L 8.378906 0 L 8.378906 -0.207031 C 7.90625 -0.207031 7.550781 -0.351562 7.113281 -0.9375 L 4.847656 -4.019531 L 4.8125 -4.066406 L 7.101562 -7.101562 C 7.539062 -7.6875 7.90625 -7.832031 8.378906 -7.832031 L 8.378906 -8.039062 L 6.042969 -8.039062 L 6.042969 -7.832031 C 7.003906 -7.832031 6.96875 -7.6875 6.527344 -7.101562 L 4.53125 -4.433594 L 2.558594 -7.089844 C 2.121094 -7.6875 2.082031 -7.832031 3.058594 -7.832031 L 3.058594 -8.039062 L 0.242188 -8.039062 L 0.242188 -7.832031 C 0.71875 -7.832031 1.070312 -7.6875 1.511719 -7.101562 L 3.777344 -4.019531 L 3.8125 -3.96875 L 1.523438 -0.9375 C 1.070312 -0.351562 0.71875 -0.207031 0.242188 -0.207031 Z M 0.242188 0 "/></g></g></g><g fill="#1c2120" fill-opacity="1"><g transform="translate(169.681053, 279.1646)"><g/></g></g><g fill="#1c2120" fill-opacity="1"><g transform="translate(172.493667, 279.1646)"><g><path d="M 0.488281 0 L 3.667969 0 C 5.03125 0 7.574219 -0.476562 7.574219 -4.019531 C 7.574219 -7.550781 5.03125 -8.039062 3.667969 -8.039062 L 0.488281 -8.039062 L 0.488281 -7.832031 C 0.988281 -7.832031 1.097656 -7.589844 1.097656 -6.855469 L 1.097656 -1.179688 C 1.097656 -0.449219 0.988281 -0.207031 0.488281 -0.207031 Z M 1.949219 -0.449219 L 1.949219 -7.589844 L 3.496094 -7.589844 C 5.53125 -7.589844 6.722656 -6.566406 6.722656 -4.019531 C 6.722656 -1.472656 5.53125 -0.449219 3.496094 -0.449219 Z M 1.949219 -0.449219 "/></g></g></g><g fill="#1c2120" fill-opacity="1"><g transform="translate(180.554049, 279.1646)"><g><path d="M 3.53125 0.121094 C 5.226562 0.121094 6.015625 -1.070312 5.894531 -2.242188 L 5.042969 -1.972656 C 5.175781 -0.753906 4.25 -0.328125 3.433594 -0.328125 C 2.277344 -0.328125 1.351562 -1.265625 1.339844 -2.8125 L 1.339844 -2.996094 C 3.082031 -2.472656 5.859375 -2.632812 5.859375 -4.519531 C 5.859375 -5.515625 5.066406 -6.210938 3.640625 -6.210938 C 1.875 -6.210938 0.488281 -5.03125 0.488281 -2.960938 C 0.488281 -1.253906 1.402344 0.121094 3.53125 0.121094 Z M 1.375 -3.445312 C 1.523438 -4.847656 2.277344 -5.761719 3.582031 -5.761719 C 4.605469 -5.761719 5.007812 -5.214844 5.007812 -4.519531 C 5.007812 -3.496094 3.738281 -2.824219 1.375 -3.445312 Z M 1.375 -3.445312 "/></g></g></g><g fill="#1c2120" fill-opacity="1"><g transform="translate(186.946341, 279.1646)"><g><path d="M 3.058594 0.121094 C 4.359375 0.121094 5.371094 -0.316406 5.371094 -1.582031 C 5.371094 -2.667969 4.386719 -3.09375 3.046875 -3.519531 C 2.035156 -3.847656 1.402344 -4.140625 1.402344 -4.8125 C 1.402344 -5.347656 1.765625 -5.761719 2.777344 -5.761719 C 3.703125 -5.761719 4.652344 -5.394531 4.117188 -4.203125 L 4.96875 -3.957031 C 5.554688 -5.675781 4.164062 -6.210938 2.765625 -6.210938 C 1.449219 -6.210938 0.546875 -5.738281 0.546875 -4.703125 C 0.546875 -3.738281 1.328125 -3.375 2.777344 -2.875 C 3.652344 -2.582031 4.519531 -2.375 4.519531 -1.4375 C 4.519531 -0.753906 4.054688 -0.328125 3.03125 -0.328125 C 1.886719 -0.328125 0.828125 -0.71875 1.316406 -2.230469 L 0.460938 -2.472656 C -0.0234375 -0.414062 1.460938 0.121094 3.058594 0.121094 Z M 3.058594 0.121094 "/></g></g></g><g fill="#1c2120" fill-opacity="1"><g transform="translate(192.681147, 279.1646)"><g><path d="M 1.402344 -7.222656 C 1.707031 -7.222656 1.925781 -7.417969 1.925781 -7.699219 C 1.925781 -7.953125 1.707031 -8.160156 1.402344 -8.160156 C 1.085938 -8.160156 0.863281 -7.953125 0.863281 -7.699219 C 0.863281 -7.417969 1.085938 -7.222656 1.402344 -7.222656 Z M 0.488281 0 L 2.558594 0 L 2.558594 -0.207031 C 2.058594 -0.207031 1.949219 -0.449219 1.949219 -1.179688 L 1.949219 -5.382812 C 1.949219 -6.003906 1.691406 -6.078125 1.242188 -6.089844 L 0.488281 -6.089844 L 0.488281 -5.882812 C 0.988281 -5.882812 1.097656 -5.640625 1.097656 -4.910156 L 1.097656 -1.179688 C 1.097656 -0.449219 0.988281 -0.207031 0.488281 -0.207031 Z M 0.488281 0 "/></g></g></g><g fill="#1c2120" fill-opacity="1"><g transform="translate(195.725092, 279.1646)"><g><path d="M 3.277344 2.558594 C 4.761719 2.558594 6.066406 1.960938 6.066406 0.558594 C 6.066406 -0.804688 5.019531 -1.109375 3.363281 -0.914062 C 1.925781 -0.742188 1.609375 -1.011719 1.609375 -1.425781 C 1.609375 -1.65625 1.707031 -1.828125 2.046875 -2.058594 C 2.386719 -1.914062 2.800781 -1.828125 3.253906 -1.828125 C 4.761719 -1.828125 5.796875 -2.742188 5.796875 -4.019531 C 5.796875 -4.554688 5.613281 -5.042969 5.285156 -5.40625 C 5.40625 -5.578125 5.578125 -5.738281 5.796875 -5.738281 C 6.042969 -5.738281 6.152344 -5.566406 5.992188 -5.054688 L 6.625 -5.296875 C 6.722656 -5.738281 6.566406 -6.210938 5.933594 -6.210938 C 5.566406 -6.210938 5.226562 -6.042969 5.007812 -5.675781 C 4.566406 -6.015625 3.957031 -6.210938 3.253906 -6.210938 C 1.742188 -6.210938 0.707031 -5.296875 0.707031 -4.019531 C 0.707031 -3.277344 1.058594 -2.644531 1.667969 -2.253906 C 1.144531 -1.949219 0.914062 -1.621094 0.914062 -1.230469 C 0.914062 -0.71875 1.304688 -0.132812 3.191406 -0.339844 C 4.542969 -0.476562 5.214844 -0.351562 5.214844 0.695312 C 5.214844 1.558594 4.542969 2.105469 3.277344 2.105469 C 2.007812 2.105469 0.949219 1.71875 1.4375 0.328125 L 0.585938 0.0859375 C 0.0976562 2.023438 1.621094 2.558594 3.277344 2.558594 Z M 3.628906 -2.3125 C 2.421875 -2.132812 1.742188 -2.777344 1.570312 -3.789062 C 1.414062 -4.75 1.863281 -5.566406 2.886719 -5.722656 C 4.082031 -5.90625 4.761719 -5.261719 4.933594 -4.25 C 5.089844 -3.289062 4.640625 -2.472656 3.628906 -2.3125 Z M 3.628906 -2.3125 "/></g></g></g><g fill="#1c2120" fill-opacity="1"><g transform="translate(202.494832, 279.1646)"><g><path d="M 0.488281 0 L 2.558594 0 L 2.558594 -0.207031 C 2.058594 -0.207031 1.949219 -0.449219 1.949219 -1.179688 L 1.949219 -2.191406 C 1.949219 -3.859375 2.363281 -5.761719 4.164062 -5.761719 C 5.175781 -5.761719 5.46875 -5.019531 5.46875 -3.933594 L 5.46875 -1.179688 C 5.46875 -0.449219 5.371094 -0.207031 4.859375 -0.207031 L 4.859375 0 L 6.929688 0 L 6.929688 -0.207031 C 6.429688 -0.207031 6.320312 -0.449219 6.320312 -1.179688 L 6.320312 -3.703125 C 6.320312 -5.285156 5.738281 -6.210938 4.359375 -6.210938 C 2.984375 -6.210938 2.3125 -5.382812 2.023438 -4.335938 L 1.949219 -4.335938 L 1.949219 -5.382812 C 1.949219 -6.003906 1.691406 -6.078125 1.242188 -6.089844 L 0.488281 -6.089844 L 0.488281 -5.882812 C 0.988281 -5.882812 1.097656 -5.640625 1.097656 -4.910156 L 1.097656 -1.179688 C 1.097656 -0.449219 0.988281 -0.207031 0.488281 -0.207031 Z M 0.488281 0 "/></g></g></g><g fill="#1c2120" fill-opacity="1"><g transform="translate(209.909894, 279.1646)"><g><path d="M 3.53125 0.121094 C 5.226562 0.121094 6.015625 -1.070312 5.894531 -2.242188 L 5.042969 -1.972656 C 5.175781 -0.753906 4.25 -0.328125 3.433594 -0.328125 C 2.277344 -0.328125 1.351562 -1.265625 1.339844 -2.8125 L 1.339844 -2.996094 C 3.082031 -2.472656 5.859375 -2.632812 5.859375 -4.519531 C 5.859375 -5.515625 5.066406 -6.210938 3.640625 -6.210938 C 1.875 -6.210938 0.488281 -5.03125 0.488281 -2.960938 C 0.488281 -1.253906 1.402344 0.121094 3.53125 0.121094 Z M 1.375 -3.445312 C 1.523438 -4.847656 2.277344 -5.761719 3.582031 -5.761719 C 4.605469 -5.761719 5.007812 -5.214844 5.007812 -4.519531 C 5.007812 -3.496094 3.738281 -2.824219 1.375 -3.445312 Z M 1.375 -3.445312 "/></g></g></g><g fill="#1c2120" fill-opacity="1"><g transform="translate(216.302186, 279.1646)"><g><path d="M 0.488281 0 L 2.558594 0 L 2.558594 -0.207031 C 2.058594 -0.207031 1.949219 -0.449219 1.949219 -1.179688 L 1.949219 -2.191406 C 1.949219 -3.859375 2.753906 -5.761719 4.140625 -5.761719 C 5.007812 -5.761719 5.175781 -5.117188 4.628906 -3.777344 L 5.480469 -3.53125 C 6.140625 -5.347656 5.613281 -6.210938 4.371094 -6.210938 C 2.972656 -6.210938 2.265625 -5.117188 2.023438 -4.25 L 1.949219 -4.25 L 1.949219 -5.382812 C 1.949219 -6.003906 1.691406 -6.078125 1.242188 -6.089844 L 0.488281 -6.089844 L 0.488281 -5.882812 C 0.988281 -5.882812 1.097656 -5.640625 1.097656 -4.910156 L 1.097656 -1.179688 C 1.097656 -0.449219 0.988281 -0.207031 0.488281 -0.207031 Z M 0.488281 0 "/></g></g></g></svg>