<svg xmlns="http://www.w3.org/2000/svg" xmlns:xlink="http://www.w3.org/1999/xlink" width="500" zoomAndPan="magnify" viewBox="0 0 375 374.999991" height="500" preserveAspectRatio="xMidYMid meet" version="1.0"><defs><g/></defs><rect x="-37.5" width="450" fill="#ffffff" y="-37.499999" height="449.999989" fill-opacity="1"/><rect x="-37.5" width="450" fill="#ffffff" y="-37.499999" height="449.999989" fill-opacity="1"/><rect x="-37.5" width="450" fill="#231f20" y="-37.499999" height="449.999989" fill-opacity="1"/><g fill="#fbfaf9" fill-opacity="1"><g transform="translate(44.002934, 221.647658)"><g><path d="M 3.597656 -69.820312 L 3.597656 -68.132812 C 9.445312 -67.457031 11.582031 -66.445312 11.582031 -62.511719 L 11.582031 0.113281 C 11.582031 9.105469 7.53125 16.414062 -2.25 17.539062 L -2.25 19.5625 C 11.128906 19.5625 19.5625 13.265625 19.5625 -9.21875 L 19.5625 -62.511719 C 19.5625 -66.445312 21.699219 -67.457031 27.433594 -68.132812 L 27.433594 -69.820312 C 19.789062 -69.480469 11.355469 -69.480469 3.597656 -69.820312 Z M 3.597656 -69.820312 "/></g></g></g><g fill="#fbfaf9" fill-opacity="1"><g transform="translate(67.500371, 221.647658)"><g><path d="M 40.023438 -14.617188 C 40.023438 -6.746094 34.515625 -1.347656 25.070312 -1.347656 C 14.839844 -1.347656 8.09375 -7.644531 4.835938 -15.179688 L 2.8125 -15.179688 L 3.710938 0 L 6.070312 0 C 6.632812 -1.800781 8.09375 -2.699219 9.667969 -2.699219 C 12.480469 -2.699219 17.089844 1.347656 25.632812 1.347656 C 37.328125 1.347656 47.894531 -6.183594 47.894531 -17.652344 C 47.894531 -31.253906 33.953125 -36.089844 24.398438 -40.585938 C 15.289062 -44.859375 10.117188 -49.246094 10.117188 -56.550781 C 10.117188 -63.972656 15.289062 -69.03125 23.496094 -69.03125 C 30.917969 -69.03125 36.425781 -65.097656 40.25 -56.664062 L 42.5 -56.664062 L 41.824219 -70.71875 L 39.6875 -70.71875 C 39.125 -69.144531 38.339844 -69.144531 37.214844 -69.144531 C 34.628906 -69.144531 31.929688 -71.617188 24.171875 -71.617188 C 10.117188 -71.617188 3.261719 -63.636719 3.261719 -54.078125 C 3.261719 -43.285156 12.03125 -36.765625 22.9375 -31.929688 C 30.804688 -28.558594 40.023438 -24.734375 40.023438 -14.617188 Z M 40.023438 -14.617188 "/></g></g></g><path stroke-linecap="butt" transform="matrix(0.748857, 0, 0, 0.75, 169.497241, 152.307777)" fill="none" stroke-linejoin="miter" d="M -0.00153143 1.001089 L 215.331818 1.001089 " stroke="#fbfaf9" stroke-width="2" stroke-opacity="1" stroke-miterlimit="4"/><path stroke-linecap="butt" transform="matrix(0.749897, 0, 0, 0.75, 160.716294, 220.509595)" fill="none" stroke-linejoin="miter" d="M -0.00193386 0.997623 L 227.039746 0.997623 " stroke="#fbfaf9" stroke-width="2" stroke-opacity="1" stroke-miterlimit="4"/><g fill="#fbfaf9" fill-opacity="1"><g transform="translate(187.499992, 181.753811)"><g><path d="M 2.71875 0.09375 C 2.144531 0.09375 1.613281 -0.03125 1.125 -0.28125 C 0.632812 -0.53125 0.234375 -0.890625 -0.078125 -1.359375 L 0.5625 -2.078125 C 1.125 -1.253906 1.847656 -0.84375 2.734375 -0.84375 C 3.984375 -0.84375 4.609375 -1.582031 4.609375 -3.0625 L 4.609375 -9.171875 L 0.921875 -9.171875 L 0.921875 -10.09375 L 5.671875 -10.09375 L 5.671875 -3.09375 C 5.671875 -2.039062 5.421875 -1.242188 4.921875 -0.703125 C 4.429688 -0.171875 3.695312 0.09375 2.71875 0.09375 Z M 2.71875 0.09375 "/></g></g></g><g fill="#fbfaf9" fill-opacity="1"><g transform="translate(202.652483, 181.753811)"><g><path d="M 7.96875 -2.703125 L 2.34375 -2.703125 L 1.140625 0 L 0.03125 0 L 4.640625 -10.09375 L 5.703125 -10.09375 L 10.3125 0 L 9.1875 0 Z M 7.59375 -3.5625 L 5.15625 -8.984375 L 2.734375 -3.5625 Z M 7.59375 -3.5625 "/></g></g></g><g fill="#fbfaf9" fill-opacity="1"><g transform="translate(220.91845, 181.753811)"><g><path d="M 4.421875 0.09375 C 3.671875 0.09375 2.953125 -0.0234375 2.265625 -0.265625 C 1.578125 -0.515625 1.046875 -0.832031 0.671875 -1.21875 L 1.09375 -2.046875 C 1.457031 -1.679688 1.941406 -1.382812 2.546875 -1.15625 C 3.160156 -0.9375 3.785156 -0.828125 4.421875 -0.828125 C 5.328125 -0.828125 6.003906 -0.988281 6.453125 -1.3125 C 6.910156 -1.644531 7.140625 -2.078125 7.140625 -2.609375 C 7.140625 -3.015625 7.015625 -3.335938 6.765625 -3.578125 C 6.523438 -3.816406 6.226562 -4 5.875 -4.125 C 5.519531 -4.257812 5.023438 -4.40625 4.390625 -4.5625 C 3.628906 -4.75 3.019531 -4.929688 2.5625 -5.109375 C 2.113281 -5.285156 1.726562 -5.554688 1.40625 -5.921875 C 1.082031 -6.285156 0.921875 -6.78125 0.921875 -7.40625 C 0.921875 -7.914062 1.054688 -8.378906 1.328125 -8.796875 C 1.597656 -9.222656 2.007812 -9.5625 2.5625 -9.8125 C 3.125 -10.0625 3.816406 -10.1875 4.640625 -10.1875 C 5.222656 -10.1875 5.789062 -10.101562 6.34375 -9.9375 C 6.894531 -9.78125 7.367188 -9.5625 7.765625 -9.28125 L 7.40625 -8.4375 C 6.988281 -8.71875 6.539062 -8.925781 6.0625 -9.0625 C 5.582031 -9.195312 5.109375 -9.265625 4.640625 -9.265625 C 3.753906 -9.265625 3.085938 -9.09375 2.640625 -8.75 C 2.191406 -8.414062 1.96875 -7.976562 1.96875 -7.4375 C 1.96875 -7.039062 2.09375 -6.71875 2.34375 -6.46875 C 2.59375 -6.21875 2.898438 -6.03125 3.265625 -5.90625 C 3.640625 -5.78125 4.140625 -5.640625 4.765625 -5.484375 C 5.503906 -5.296875 6.097656 -5.113281 6.546875 -4.9375 C 7.003906 -4.757812 7.390625 -4.488281 7.703125 -4.125 C 8.023438 -3.769531 8.1875 -3.285156 8.1875 -2.671875 C 8.1875 -2.160156 8.050781 -1.695312 7.78125 -1.28125 C 7.507812 -0.863281 7.085938 -0.53125 6.515625 -0.28125 C 5.953125 -0.03125 5.253906 0.09375 4.421875 0.09375 Z M 4.421875 0.09375 "/></g></g></g><g fill="#fbfaf9" fill-opacity="1"><g transform="translate(237.714172, 181.753811)"><g><path d="M 12.125 -10.09375 L 12.125 0 L 11.109375 0 L 11.109375 -8.078125 L 7.140625 -1.28125 L 6.640625 -1.28125 L 2.671875 -8.03125 L 2.671875 0 L 1.640625 0 L 1.640625 -10.09375 L 2.53125 -10.09375 L 6.90625 -2.609375 L 11.25 -10.09375 Z M 12.125 -10.09375 "/></g></g></g><g fill="#fbfaf9" fill-opacity="1"><g transform="translate(259.410735, 181.753811)"><g><path d="M 1.640625 -10.09375 L 2.71875 -10.09375 L 2.71875 0 L 1.640625 0 Z M 1.640625 -10.09375 "/></g></g></g><g fill="#fbfaf9" fill-opacity="1"><g transform="translate(271.694802, 181.753811)"><g><path d="M 10.078125 -10.09375 L 10.078125 0 L 9.203125 0 L 2.71875 -8.1875 L 2.71875 0 L 1.640625 0 L 1.640625 -10.09375 L 2.53125 -10.09375 L 9.03125 -1.90625 L 9.03125 -10.09375 Z M 10.078125 -10.09375 "/></g></g></g><g fill="#fbfaf9" fill-opacity="1"><g transform="translate(187.499992, 202.835081)"><g><path d="M 4.421875 0.09375 C 3.671875 0.09375 2.953125 -0.0234375 2.265625 -0.265625 C 1.578125 -0.515625 1.046875 -0.832031 0.671875 -1.21875 L 1.09375 -2.046875 C 1.457031 -1.679688 1.941406 -1.382812 2.546875 -1.15625 C 3.160156 -0.9375 3.785156 -0.828125 4.421875 -0.828125 C 5.328125 -0.828125 6.003906 -0.988281 6.453125 -1.3125 C 6.910156 -1.644531 7.140625 -2.078125 7.140625 -2.609375 C 7.140625 -3.015625 7.015625 -3.335938 6.765625 -3.578125 C 6.523438 -3.816406 6.226562 -4 5.875 -4.125 C 5.519531 -4.257812 5.023438 -4.40625 4.390625 -4.5625 C 3.628906 -4.75 3.019531 -4.929688 2.5625 -5.109375 C 2.113281 -5.285156 1.726562 -5.554688 1.40625 -5.921875 C 1.082031 -6.285156 0.921875 -6.78125 0.921875 -7.40625 C 0.921875 -7.914062 1.054688 -8.378906 1.328125 -8.796875 C 1.597656 -9.222656 2.007812 -9.5625 2.5625 -9.8125 C 3.125 -10.0625 3.816406 -10.1875 4.640625 -10.1875 C 5.222656 -10.1875 5.789062 -10.101562 6.34375 -9.9375 C 6.894531 -9.78125 7.367188 -9.5625 7.765625 -9.28125 L 7.40625 -8.4375 C 6.988281 -8.71875 6.539062 -8.925781 6.0625 -9.0625 C 5.582031 -9.195312 5.109375 -9.265625 4.640625 -9.265625 C 3.753906 -9.265625 3.085938 -9.09375 2.640625 -8.75 C 2.191406 -8.414062 1.96875 -7.976562 1.96875 -7.4375 C 1.96875 -7.039062 2.09375 -6.71875 2.34375 -6.46875 C 2.59375 -6.21875 2.898438 -6.03125 3.265625 -5.90625 C 3.640625 -5.78125 4.140625 -5.640625 4.765625 -5.484375 C 5.503906 -5.296875 6.097656 -5.113281 6.546875 -4.9375 C 7.003906 -4.757812 7.390625 -4.488281 7.703125 -4.125 C 8.023438 -3.769531 8.1875 -3.285156 8.1875 -2.671875 C 8.1875 -2.160156 8.050781 -1.695312 7.78125 -1.28125 C 7.507812 -0.863281 7.085938 -0.53125 6.515625 -0.28125 C 5.953125 -0.03125 5.253906 0.09375 4.421875 0.09375 Z M 4.421875 0.09375 "/></g></g></g><g fill="#fbfaf9" fill-opacity="1"><g transform="translate(204.295714, 202.835081)"><g><path d="M 6.0625 0.09375 C 5.0625 0.09375 4.15625 -0.128906 3.34375 -0.578125 C 2.53125 -1.023438 1.894531 -1.640625 1.4375 -2.421875 C 0.976562 -3.203125 0.75 -4.078125 0.75 -5.046875 C 0.75 -6.015625 0.976562 -6.890625 1.4375 -7.671875 C 1.894531 -8.453125 2.53125 -9.066406 3.34375 -9.515625 C 4.15625 -9.960938 5.0625 -10.1875 6.0625 -10.1875 C 7.0625 -10.1875 7.960938 -9.960938 8.765625 -9.515625 C 9.566406 -9.078125 10.195312 -8.460938 10.65625 -7.671875 C 11.113281 -6.890625 11.34375 -6.015625 11.34375 -5.046875 C 11.34375 -4.078125 11.113281 -3.195312 10.65625 -2.40625 C 10.195312 -1.625 9.566406 -1.007812 8.765625 -0.5625 C 7.960938 -0.125 7.0625 0.09375 6.0625 0.09375 Z M 6.0625 -0.859375 C 6.851562 -0.859375 7.570312 -1.039062 8.21875 -1.40625 C 8.863281 -1.769531 9.367188 -2.269531 9.734375 -2.90625 C 10.097656 -3.539062 10.28125 -4.253906 10.28125 -5.046875 C 10.28125 -5.835938 10.097656 -6.550781 9.734375 -7.1875 C 9.367188 -7.820312 8.863281 -8.320312 8.21875 -8.6875 C 7.570312 -9.050781 6.851562 -9.234375 6.0625 -9.234375 C 5.257812 -9.234375 4.53125 -9.050781 3.875 -8.6875 C 3.226562 -8.320312 2.71875 -7.820312 2.34375 -7.1875 C 1.976562 -6.550781 1.796875 -5.835938 1.796875 -5.046875 C 1.796875 -4.253906 1.976562 -3.539062 2.34375 -2.90625 C 2.71875 -2.269531 3.226562 -1.769531 3.875 -1.40625 C 4.53125 -1.039062 5.257812 -0.859375 6.0625 -0.859375 Z M 6.0625 -0.859375 "/></g></g></g><g fill="#fbfaf9" fill-opacity="1"><g transform="translate(224.320225, 202.835081)"><g><path d="M 8.78125 -0.921875 L 8.78125 0 L 1.640625 0 L 1.640625 -10.09375 L 8.5625 -10.09375 L 8.5625 -9.171875 L 2.71875 -9.171875 L 2.71875 -5.578125 L 7.9375 -5.578125 L 7.9375 -4.671875 L 2.71875 -4.671875 L 2.71875 -0.921875 Z M 8.78125 -0.921875 "/></g></g></g><g fill="#fbfaf9" fill-opacity="1"><g transform="translate(241.894309, 202.835081)"><g><path d="M 10.078125 -10.09375 L 10.078125 0 L 9.203125 0 L 2.71875 -8.1875 L 2.71875 0 L 1.640625 0 L 1.640625 -10.09375 L 2.53125 -10.09375 L 9.03125 -1.90625 L 9.03125 -10.09375 Z M 10.078125 -10.09375 "/></g></g></g><g fill="#fbfaf9" fill-opacity="1"><g transform="translate(261.544044, 202.835081)"><g><path d="M 2.71875 0.09375 C 2.144531 0.09375 1.613281 -0.03125 1.125 -0.28125 C 0.632812 -0.53125 0.234375 -0.890625 -0.078125 -1.359375 L 0.5625 -2.078125 C 1.125 -1.253906 1.847656 -0.84375 2.734375 -0.84375 C 3.984375 -0.84375 4.609375 -1.582031 4.609375 -3.0625 L 4.609375 -9.171875 L 0.921875 -9.171875 L 0.921875 -10.09375 L 5.671875 -10.09375 L 5.671875 -3.09375 C 5.671875 -2.039062 5.421875 -1.242188 4.921875 -0.703125 C 4.429688 -0.171875 3.695312 0.09375 2.71875 0.09375 Z M 2.71875 0.09375 "/></g></g></g><g fill="#fbfaf9" fill-opacity="1"><g transform="translate(276.696535, 202.835081)"><g><path d="M 6.0625 0.09375 C 5.0625 0.09375 4.15625 -0.128906 3.34375 -0.578125 C 2.53125 -1.023438 1.894531 -1.640625 1.4375 -2.421875 C 0.976562 -3.203125 0.75 -4.078125 0.75 -5.046875 C 0.75 -6.015625 0.976562 -6.890625 1.4375 -7.671875 C 1.894531 -8.453125 2.53125 -9.066406 3.34375 -9.515625 C 4.15625 -9.960938 5.0625 -10.1875 6.0625 -10.1875 C 7.0625 -10.1875 7.960938 -9.960938 8.765625 -9.515625 C 9.566406 -9.078125 10.195312 -8.460938 10.65625 -7.671875 C 11.113281 -6.890625 11.34375 -6.015625 11.34375 -5.046875 C 11.34375 -4.078125 11.113281 -3.195312 10.65625 -2.40625 C 10.195312 -1.625 9.566406 -1.007812 8.765625 -0.5625 C 7.960938 -0.125 7.0625 0.09375 6.0625 0.09375 Z M 6.0625 -0.859375 C 6.851562 -0.859375 7.570312 -1.039062 8.21875 -1.40625 C 8.863281 -1.769531 9.367188 -2.269531 9.734375 -2.90625 C 10.097656 -3.539062 10.28125 -4.253906 10.28125 -5.046875 C 10.28125 -5.835938 10.097656 -6.550781 9.734375 -7.1875 C 9.367188 -7.820312 8.863281 -8.320312 8.21875 -8.6875 C 7.570312 -9.050781 6.851562 -9.234375 6.0625 -9.234375 C 5.257812 -9.234375 4.53125 -9.050781 3.875 -8.6875 C 3.226562 -8.320312 2.71875 -7.820312 2.34375 -7.1875 C 1.976562 -6.550781 1.796875 -5.835938 1.796875 -5.046875 C 1.796875 -4.253906 1.976562 -3.539062 2.34375 -2.90625 C 2.71875 -2.269531 3.226562 -1.769531 3.875 -1.40625 C 4.53125 -1.039062 5.257812 -0.859375 6.0625 -0.859375 Z M 6.0625 -0.859375 "/></g></g></g><g fill="#fbfaf9" fill-opacity="1"><g transform="translate(296.721046, 202.835081)"><g><path d="M 3.609375 -9.171875 L 0.0625 -9.171875 L 0.0625 -10.09375 L 8.21875 -10.09375 L 8.21875 -9.171875 L 4.671875 -9.171875 L 4.671875 0 L 3.609375 0 Z M 3.609375 -9.171875 "/></g></g></g><g fill="#fbfaf9" fill-opacity="1"><g transform="translate(312.92578, 202.835081)"><g><path d="M 6.0625 0.09375 C 5.0625 0.09375 4.15625 -0.128906 3.34375 -0.578125 C 2.53125 -1.023438 1.894531 -1.640625 1.4375 -2.421875 C 0.976562 -3.203125 0.75 -4.078125 0.75 -5.046875 C 0.75 -6.015625 0.976562 -6.890625 1.4375 -7.671875 C 1.894531 -8.453125 2.53125 -9.066406 3.34375 -9.515625 C 4.15625 -9.960938 5.0625 -10.1875 6.0625 -10.1875 C 7.0625 -10.1875 7.960938 -9.960938 8.765625 -9.515625 C 9.566406 -9.078125 10.195312 -8.460938 10.65625 -7.671875 C 11.113281 -6.890625 11.34375 -6.015625 11.34375 -5.046875 C 11.34375 -4.078125 11.113281 -3.195312 10.65625 -2.40625 C 10.195312 -1.625 9.566406 -1.007812 8.765625 -0.5625 C 7.960938 -0.125 7.0625 0.09375 6.0625 0.09375 Z M 6.0625 -0.859375 C 6.851562 -0.859375 7.570312 -1.039062 8.21875 -1.40625 C 8.863281 -1.769531 9.367188 -2.269531 9.734375 -2.90625 C 10.097656 -3.539062 10.28125 -4.253906 10.28125 -5.046875 C 10.28125 -5.835938 10.097656 -6.550781 9.734375 -7.1875 C 9.367188 -7.820312 8.863281 -8.320312 8.21875 -8.6875 C 7.570312 -9.050781 6.851562 -9.234375 6.0625 -9.234375 C 5.257812 -9.234375 4.53125 -9.050781 3.875 -8.6875 C 3.226562 -8.320312 2.71875 -7.820312 2.34375 -7.1875 C 1.976562 -6.550781 1.796875 -5.835938 1.796875 -5.046875 C 1.796875 -4.253906 1.976562 -3.539062 2.34375 -2.90625 C 2.71875 -2.269531 3.226562 -1.769531 3.875 -1.40625 C 4.53125 -1.039062 5.257812 -0.859375 6.0625 -0.859375 Z M 6.0625 -0.859375 "/></g></g></g></svg>