<svg xmlns="http://www.w3.org/2000/svg" xmlns:xlink="http://www.w3.org/1999/xlink" width="500" zoomAndPan="magnify" viewBox="0 0 375 374.999991" height="500" preserveAspectRatio="xMidYMid meet" version="1.0"><defs><g/><clipPath id="7da65444a1"><path d="M 177.203125 103.042969 L 197.796875 103.042969 L 197.796875 132.429688 L 177.203125 132.429688 Z M 177.203125 103.042969 " clip-rule="nonzero"/></clipPath><clipPath id="0a7ed8e469"><path d="M 177.203125 168.554688 L 197.796875 168.554688 L 197.796875 197.941406 L 177.203125 197.941406 Z M 177.203125 168.554688 " clip-rule="nonzero"/></clipPath></defs><g fill="#ffffff" fill-opacity="1"><g transform="translate(157.277857, 185.410682)"><g><path d="M 28.65625 -80.484375 C 31.9375 -80.484375 34.53125 -80.128906 36.4375 -79.421875 C 38.34375 -78.710938 40.300781 -77.6875 42.3125 -76.34375 C 43.957031 -75.300781 45.226562 -74.78125 46.125 -74.78125 C 46.789062 -74.78125 47.3125 -75.171875 47.6875 -75.953125 C 48.0625 -76.734375 48.359375 -77.984375 48.578125 -79.703125 L 51.15625 -79.703125 C 50.78125 -75.367188 50.59375 -67.753906 50.59375 -56.859375 L 48.015625 -56.859375 C 47.566406 -62.910156 45.832031 -68.003906 42.8125 -72.140625 C 39.789062 -76.285156 35.40625 -78.359375 29.65625 -78.359375 C 25.632812 -78.359375 22.351562 -77.144531 19.8125 -74.71875 C 17.269531 -72.289062 16 -69.175781 16 -65.375 C 16 -62.539062 16.648438 -60.078125 17.953125 -57.984375 C 19.265625 -55.890625 20.925781 -54.097656 22.9375 -52.609375 C 24.957031 -51.117188 27.832031 -49.21875 31.5625 -46.90625 L 34.8125 -44.890625 C 39.507812 -41.972656 43.21875 -39.414062 45.9375 -37.21875 C 48.664062 -35.019531 50.851562 -32.5 52.5 -29.65625 C 54.144531 -26.820312 54.96875 -23.503906 54.96875 -19.703125 C 54.96875 -12.910156 52.726562 -7.664062 48.25 -3.96875 C 43.769531 -0.28125 38.097656 1.5625 31.234375 1.5625 C 27.648438 1.5625 24.71875 1.1875 22.4375 0.4375 C 20.164062 -0.300781 17.984375 -1.304688 15.890625 -2.578125 C 14.253906 -3.617188 12.988281 -4.140625 12.09375 -4.140625 C 11.414062 -4.140625 10.890625 -3.75 10.515625 -2.96875 C 10.148438 -2.1875 9.851562 -0.9375 9.625 0.78125 L 7.046875 0.78125 C 7.347656 -3.320312 7.5 -12.273438 7.5 -26.078125 L 10.078125 -26.078125 C 10.597656 -18.546875 12.460938 -12.425781 15.671875 -7.71875 C 18.878906 -3.019531 23.804688 -0.671875 30.453125 -0.671875 C 34.472656 -0.671875 37.898438 -1.921875 40.734375 -4.421875 C 43.578125 -6.921875 45 -10.632812 45 -15.5625 C 45 -19.738281 43.597656 -23.28125 40.796875 -26.1875 C 38.003906 -29.101562 33.582031 -32.390625 27.53125 -36.046875 C 23.132812 -38.734375 19.570312 -41.117188 16.84375 -43.203125 C 14.125 -45.296875 11.90625 -47.816406 10.1875 -50.765625 C 8.46875 -53.710938 7.609375 -57.164062 7.609375 -61.125 C 7.609375 -67.382812 9.625 -72.175781 13.65625 -75.5 C 17.6875 -78.820312 22.6875 -80.484375 28.65625 -80.484375 Z M 28.65625 -80.484375 "/></g></g></g><g clip-path="url(#7da65444a1)"><path fill="#1c2120" d="M 177.203125 103.042969 L 197.667969 103.042969 L 197.667969 132.273438 L 177.203125 132.273438 Z M 177.203125 103.042969 " fill-opacity="1" fill-rule="nonzero"/></g><g clip-path="url(#0a7ed8e469)"><path fill="#1c2120" d="M 177.203125 168.554688 L 197.667969 168.554688 L 197.667969 197.785156 L 177.203125 197.785156 Z M 177.203125 168.554688 " fill-opacity="1" fill-rule="nonzero"/></g><g fill="#ffffff" fill-opacity="1"><g transform="translate(162.711541, 191.041247)"><g><path d="M -3.046875 25.703125 C 4.054688 25.492188 9.304688 22.851562 12.703125 17.78125 C 16.097656 12.71875 17.796875 4.15625 17.796875 -7.90625 L 17.796875 -91.546875 C 17.796875 -95.398438 17.488281 -98.1875 16.875 -99.90625 C 16.269531 -101.632812 15.128906 -102.800781 13.453125 -103.40625 C 11.785156 -104.019531 9.125 -104.425781 5.46875 -104.625 L 5.46875 -107.671875 C 9.726562 -107.367188 16.117188 -107.21875 24.640625 -107.21875 C 32.953125 -107.21875 39.488281 -107.367188 44.25 -107.671875 L 44.25 -104.625 C 40.601562 -104.425781 37.941406 -104.019531 36.265625 -103.40625 C 34.597656 -102.800781 33.457031 -101.632812 32.84375 -99.90625 C 32.238281 -98.1875 31.9375 -95.398438 31.9375 -91.546875 L 31.9375 -35.890625 C 31.9375 -27.273438 31.785156 -19.644531 31.484375 -13 C 31.179688 -6.363281 30.46875 -0.765625 29.34375 3.796875 C 27.519531 11.203125 23.796875 17.1875 18.171875 21.75 C 12.546875 26.3125 5.472656 28.59375 -3.046875 28.59375 Z M -3.046875 25.703125 "/></g></g></g><g fill="#ffffff" fill-opacity="1"><g transform="translate(119.083736, 270.439991)"><g><path d="M -0.84375 7.078125 C 1.113281 7.023438 2.5625 6.300781 3.5 4.90625 C 4.4375 3.507812 4.90625 1.148438 4.90625 -2.171875 L 4.90625 -25.21875 C 4.90625 -26.28125 4.820312 -27.046875 4.65625 -27.515625 C 4.488281 -27.992188 4.171875 -28.316406 3.703125 -28.484375 C 3.242188 -28.648438 2.515625 -28.765625 1.515625 -28.828125 L 1.515625 -29.65625 C 2.679688 -29.570312 4.4375 -29.53125 6.78125 -29.53125 C 9.070312 -29.53125 10.875 -29.570312 12.1875 -29.65625 L 12.1875 -28.828125 C 11.1875 -28.765625 10.453125 -28.648438 9.984375 -28.484375 C 9.523438 -28.316406 9.210938 -27.992188 9.046875 -27.515625 C 8.878906 -27.046875 8.796875 -26.28125 8.796875 -25.21875 L 8.796875 -9.890625 C 8.796875 -7.515625 8.753906 -5.410156 8.671875 -3.578125 C 8.585938 -1.753906 8.390625 -0.210938 8.078125 1.046875 C 7.578125 3.085938 6.550781 4.734375 5 5.984375 C 3.457031 7.242188 1.507812 7.875 -0.84375 7.875 Z M -0.84375 7.078125 "/></g></g></g><g fill="#ffffff" fill-opacity="1"><g transform="translate(132.741343, 270.439991)"><g><path d="M 23.75 -3.515625 C 24.414062 -1.785156 25.378906 -0.894531 26.640625 -0.84375 L 26.640625 0 C 25.523438 -0.0820312 24.03125 -0.125 22.15625 -0.125 C 19.757812 -0.125 17.972656 -0.0820312 16.796875 0 L 16.796875 -0.84375 C 17.859375 -0.894531 18.617188 -1.023438 19.078125 -1.234375 C 19.535156 -1.441406 19.765625 -1.828125 19.765625 -2.390625 C 19.765625 -2.859375 19.597656 -3.515625 19.265625 -4.359375 L 16.71875 -11.234375 L 6.578125 -11.234375 L 4.859375 -6.78125 C 4.296875 -5.28125 4.015625 -4.132812 4.015625 -3.34375 C 4.015625 -2.476562 4.316406 -1.847656 4.921875 -1.453125 C 5.523438 -1.066406 6.441406 -0.863281 7.671875 -0.84375 L 7.671875 0 C 6.078125 -0.0820312 4.46875 -0.125 2.84375 -0.125 C 1.59375 -0.125 0.546875 -0.0820312 -0.296875 0 L -0.296875 -0.84375 C 1.097656 -1.175781 2.203125 -2.390625 3.015625 -4.484375 L 12.859375 -29.875 L 13.53125 -29.875 Z M 16.375 -12.0625 L 11.6875 -24.59375 L 6.90625 -12.0625 Z M 16.375 -12.0625 "/></g></g></g><g fill="#ffffff" fill-opacity="1"><g transform="translate(159.134874, 270.439991)"><g><path d="M 10.71875 -30.125 C 11.945312 -30.125 12.914062 -29.988281 13.625 -29.71875 C 14.34375 -29.457031 15.078125 -29.070312 15.828125 -28.5625 C 16.441406 -28.175781 16.921875 -27.984375 17.265625 -27.984375 C 17.515625 -27.984375 17.707031 -28.128906 17.84375 -28.421875 C 17.988281 -28.710938 18.101562 -29.179688 18.1875 -29.828125 L 19.140625 -29.828125 C 19.003906 -28.203125 18.9375 -25.351562 18.9375 -21.28125 L 17.96875 -21.28125 C 17.800781 -23.539062 17.148438 -25.445312 16.015625 -27 C 14.890625 -28.550781 13.25 -29.328125 11.09375 -29.328125 C 9.59375 -29.328125 8.363281 -28.867188 7.40625 -27.953125 C 6.457031 -27.046875 5.984375 -25.882812 5.984375 -24.46875 C 5.984375 -23.40625 6.226562 -22.484375 6.71875 -21.703125 C 7.207031 -20.921875 7.828125 -20.25 8.578125 -19.6875 C 9.335938 -19.125 10.414062 -18.410156 11.8125 -17.546875 L 13.03125 -16.796875 C 14.789062 -15.710938 16.175781 -14.753906 17.1875 -13.921875 C 18.207031 -13.097656 19.023438 -12.15625 19.640625 -11.09375 C 20.253906 -10.039062 20.5625 -8.800781 20.5625 -7.375 C 20.5625 -4.832031 19.722656 -2.867188 18.046875 -1.484375 C 16.378906 -0.0976562 14.257812 0.59375 11.6875 0.59375 C 10.34375 0.59375 9.242188 0.453125 8.390625 0.171875 C 7.546875 -0.109375 6.734375 -0.488281 5.953125 -0.96875 C 5.335938 -1.351562 4.863281 -1.546875 4.53125 -1.546875 C 4.269531 -1.546875 4.070312 -1.398438 3.9375 -1.109375 C 3.800781 -0.816406 3.691406 -0.347656 3.609375 0.296875 L 2.640625 0.296875 C 2.753906 -1.242188 2.8125 -4.597656 2.8125 -9.765625 L 3.765625 -9.765625 C 3.960938 -6.941406 4.660156 -4.648438 5.859375 -2.890625 C 7.066406 -1.128906 8.910156 -0.25 11.390625 -0.25 C 12.898438 -0.25 14.1875 -0.71875 15.25 -1.65625 C 16.3125 -2.59375 16.84375 -3.984375 16.84375 -5.828125 C 16.84375 -7.390625 16.316406 -8.710938 15.265625 -9.796875 C 14.222656 -10.890625 12.570312 -12.117188 10.3125 -13.484375 C 8.65625 -14.492188 7.316406 -15.390625 6.296875 -16.171875 C 5.285156 -16.953125 4.457031 -17.894531 3.8125 -19 C 3.164062 -20.101562 2.84375 -21.394531 2.84375 -22.875 C 2.84375 -25.21875 3.597656 -27.007812 5.109375 -28.25 C 6.617188 -29.5 8.488281 -30.125 10.71875 -30.125 Z M 10.71875 -30.125 "/></g></g></g><g fill="#ffffff" fill-opacity="1"><g transform="translate(181.757896, 270.439991)"><g><path d="M 34.734375 -28.828125 C 33.722656 -28.765625 32.988281 -28.648438 32.53125 -28.484375 C 32.070312 -28.316406 31.753906 -27.992188 31.578125 -27.515625 C 31.410156 -27.046875 31.328125 -26.28125 31.328125 -25.21875 L 31.328125 -4.4375 C 31.328125 -3.375 31.410156 -2.601562 31.578125 -2.125 C 31.753906 -1.65625 32.070312 -1.335938 32.53125 -1.171875 C 32.988281 -1.003906 33.722656 -0.894531 34.734375 -0.84375 L 34.734375 0 C 33.441406 -0.0820312 31.664062 -0.125 29.40625 -0.125 C 27 -0.125 25.210938 -0.0820312 24.046875 0 L 24.046875 -0.84375 C 25.046875 -0.894531 25.773438 -1.003906 26.234375 -1.171875 C 26.703125 -1.335938 27.019531 -1.65625 27.1875 -2.125 C 27.351562 -2.601562 27.4375 -3.375 27.4375 -4.4375 L 27.4375 -26.890625 L 17.34375 0.203125 L 16.671875 0.203125 L 6.109375 -26.984375 L 6.109375 -4.859375 C 6.109375 -3.765625 6.195312 -2.953125 6.375 -2.421875 C 6.5625 -1.898438 6.921875 -1.519531 7.453125 -1.28125 C 7.984375 -1.039062 8.804688 -0.894531 9.921875 -0.84375 L 9.921875 0 C 8.921875 -0.0820312 7.5 -0.125 5.65625 -0.125 C 3.976562 -0.125 2.679688 -0.0820312 1.765625 0 L 1.765625 -0.84375 C 2.734375 -0.894531 3.457031 -1.039062 3.9375 -1.28125 C 4.414062 -1.519531 4.738281 -1.910156 4.90625 -2.453125 C 5.070312 -2.992188 5.15625 -3.796875 5.15625 -4.859375 L 5.15625 -25.21875 C 5.15625 -26.28125 5.070312 -27.046875 4.90625 -27.515625 C 4.738281 -27.992188 4.421875 -28.316406 3.953125 -28.484375 C 3.492188 -28.648438 2.765625 -28.765625 1.765625 -28.828125 L 1.765625 -29.65625 C 2.679688 -29.570312 3.976562 -29.53125 5.65625 -29.53125 C 7.101562 -29.53125 8.289062 -29.570312 9.21875 -29.65625 L 18.4375 -5.40625 L 27.4375 -29.53125 L 29.40625 -29.53125 C 31.664062 -29.53125 33.441406 -29.570312 34.734375 -29.65625 Z M 34.734375 -28.828125 "/></g></g></g><g fill="#ffffff" fill-opacity="1"><g transform="translate(218.247998, 270.439991)"><g><path d="M 12.4375 -28.828125 C 11.4375 -28.765625 10.703125 -28.648438 10.234375 -28.484375 C 9.773438 -28.316406 9.460938 -27.992188 9.296875 -27.515625 C 9.128906 -27.046875 9.046875 -26.28125 9.046875 -25.21875 L 9.046875 -4.4375 C 9.046875 -3.375 9.128906 -2.601562 9.296875 -2.125 C 9.460938 -1.65625 9.773438 -1.335938 10.234375 -1.171875 C 10.703125 -1.003906 11.4375 -0.894531 12.4375 -0.84375 L 12.4375 0 C 11.15625 -0.0820312 9.382812 -0.125 7.125 -0.125 C 4.71875 -0.125 2.929688 -0.0820312 1.765625 0 L 1.765625 -0.84375 C 2.765625 -0.894531 3.492188 -1.003906 3.953125 -1.171875 C 4.421875 -1.335938 4.738281 -1.65625 4.90625 -2.125 C 5.070312 -2.601562 5.15625 -3.375 5.15625 -4.4375 L 5.15625 -25.21875 C 5.15625 -26.28125 5.070312 -27.046875 4.90625 -27.515625 C 4.738281 -27.992188 4.421875 -28.316406 3.953125 -28.484375 C 3.492188 -28.648438 2.765625 -28.765625 1.765625 -28.828125 L 1.765625 -29.65625 C 2.929688 -29.570312 4.71875 -29.53125 7.125 -29.53125 C 9.351562 -29.53125 11.125 -29.570312 12.4375 -29.65625 Z M 12.4375 -28.828125 "/></g></g></g><g fill="#ffffff" fill-opacity="1"><g transform="translate(232.45023, 270.439991)"><g><path d="M 28.0625 -28.828125 C 27.082031 -28.765625 26.351562 -28.613281 25.875 -28.375 C 25.40625 -28.144531 25.085938 -27.753906 24.921875 -27.203125 C 24.753906 -26.660156 24.671875 -25.859375 24.671875 -24.796875 L 24.671875 0.203125 L 23.703125 0.203125 L 6.109375 -26.984375 L 6.109375 -4.859375 C 6.109375 -3.765625 6.195312 -2.953125 6.375 -2.421875 C 6.5625 -1.898438 6.921875 -1.519531 7.453125 -1.28125 C 7.984375 -1.039062 8.804688 -0.894531 9.921875 -0.84375 L 9.921875 0 C 8.921875 -0.0820312 7.5 -0.125 5.65625 -0.125 C 3.976562 -0.125 2.679688 -0.0820312 1.765625 0 L 1.765625 -0.84375 C 2.734375 -0.894531 3.457031 -1.039062 3.9375 -1.28125 C 4.414062 -1.519531 4.738281 -1.910156 4.90625 -2.453125 C 5.070312 -2.992188 5.15625 -3.796875 5.15625 -4.859375 L 5.15625 -25.21875 C 5.15625 -26.28125 5.070312 -27.046875 4.90625 -27.515625 C 4.738281 -27.992188 4.421875 -28.316406 3.953125 -28.484375 C 3.492188 -28.648438 2.765625 -28.765625 1.765625 -28.828125 L 1.765625 -29.65625 C 2.679688 -29.570312 3.976562 -29.53125 5.65625 -29.53125 C 6.914062 -29.53125 8.003906 -29.570312 8.921875 -29.65625 L 23.703125 -6.875 L 23.703125 -24.796875 C 23.703125 -25.890625 23.613281 -26.703125 23.4375 -27.234375 C 23.257812 -27.765625 22.90625 -28.144531 22.375 -28.375 C 21.84375 -28.613281 21.015625 -28.765625 19.890625 -28.828125 L 19.890625 -29.65625 C 20.898438 -29.570312 22.328125 -29.53125 24.171875 -29.53125 C 25.847656 -29.53125 27.144531 -29.570312 28.0625 -29.65625 Z M 28.0625 -28.828125 "/></g></g></g><g fill="#ffffff" fill-opacity="1"><g transform="translate(85.286863, 328.939987)"><g><path d="M 10.71875 -30.125 C 11.945312 -30.125 12.914062 -29.988281 13.625 -29.71875 C 14.34375 -29.457031 15.078125 -29.070312 15.828125 -28.5625 C 16.441406 -28.175781 16.921875 -27.984375 17.265625 -27.984375 C 17.515625 -27.984375 17.707031 -28.128906 17.84375 -28.421875 C 17.988281 -28.710938 18.101562 -29.179688 18.1875 -29.828125 L 19.140625 -29.828125 C 19.003906 -28.203125 18.9375 -25.351562 18.9375 -21.28125 L 17.96875 -21.28125 C 17.800781 -23.539062 17.148438 -25.445312 16.015625 -27 C 14.890625 -28.550781 13.25 -29.328125 11.09375 -29.328125 C 9.59375 -29.328125 8.363281 -28.867188 7.40625 -27.953125 C 6.457031 -27.046875 5.984375 -25.882812 5.984375 -24.46875 C 5.984375 -23.40625 6.226562 -22.484375 6.71875 -21.703125 C 7.207031 -20.921875 7.828125 -20.25 8.578125 -19.6875 C 9.335938 -19.125 10.414062 -18.410156 11.8125 -17.546875 L 13.03125 -16.796875 C 14.789062 -15.710938 16.175781 -14.753906 17.1875 -13.921875 C 18.207031 -13.097656 19.023438 -12.15625 19.640625 -11.09375 C 20.253906 -10.039062 20.5625 -8.800781 20.5625 -7.375 C 20.5625 -4.832031 19.722656 -2.867188 18.046875 -1.484375 C 16.378906 -0.0976562 14.257812 0.59375 11.6875 0.59375 C 10.34375 0.59375 9.242188 0.453125 8.390625 0.171875 C 7.546875 -0.109375 6.734375 -0.488281 5.953125 -0.96875 C 5.335938 -1.351562 4.863281 -1.546875 4.53125 -1.546875 C 4.269531 -1.546875 4.070312 -1.398438 3.9375 -1.109375 C 3.800781 -0.816406 3.691406 -0.347656 3.609375 0.296875 L 2.640625 0.296875 C 2.753906 -1.242188 2.8125 -4.597656 2.8125 -9.765625 L 3.765625 -9.765625 C 3.960938 -6.941406 4.660156 -4.648438 5.859375 -2.890625 C 7.066406 -1.128906 8.910156 -0.25 11.390625 -0.25 C 12.898438 -0.25 14.1875 -0.71875 15.25 -1.65625 C 16.3125 -2.59375 16.84375 -3.984375 16.84375 -5.828125 C 16.84375 -7.390625 16.316406 -8.710938 15.265625 -9.796875 C 14.222656 -10.890625 12.570312 -12.117188 10.3125 -13.484375 C 8.65625 -14.492188 7.316406 -15.390625 6.296875 -16.171875 C 5.285156 -16.953125 4.457031 -17.894531 3.8125 -19 C 3.164062 -20.101562 2.84375 -21.394531 2.84375 -22.875 C 2.84375 -25.21875 3.597656 -27.007812 5.109375 -28.25 C 6.617188 -29.5 8.488281 -30.125 10.71875 -30.125 Z M 10.71875 -30.125 "/></g></g></g><g fill="#ffffff" fill-opacity="1"><g transform="translate(107.909886, 328.939987)"><g><path d="M 15.546875 -30.25 C 18.191406 -30.25 20.515625 -29.644531 22.515625 -28.4375 C 24.515625 -27.238281 26.066406 -25.5 27.171875 -23.21875 C 28.273438 -20.945312 28.828125 -18.234375 28.828125 -15.078125 C 28.828125 -12.003906 28.257812 -9.28125 27.125 -6.90625 C 25.988281 -4.53125 24.410156 -2.6875 22.390625 -1.375 C 20.367188 -0.0625 18.070312 0.59375 15.5 0.59375 C 12.84375 0.59375 10.515625 -0.00390625 8.515625 -1.203125 C 6.523438 -2.410156 4.976562 -4.148438 3.875 -6.421875 C 2.769531 -8.703125 2.21875 -11.421875 2.21875 -14.578125 C 2.21875 -17.648438 2.78125 -20.375 3.90625 -22.75 C 5.039062 -25.125 6.617188 -26.96875 8.640625 -28.28125 C 10.671875 -29.59375 12.972656 -30.25 15.546875 -30.25 Z M 15.375 -29.484375 C 13.582031 -29.484375 12.007812 -28.863281 10.65625 -27.625 C 9.300781 -26.382812 8.253906 -24.644531 7.515625 -22.40625 C 6.773438 -20.175781 6.40625 -17.625 6.40625 -14.75 C 6.40625 -11.84375 6.816406 -9.285156 7.640625 -7.078125 C 8.460938 -4.867188 9.570312 -3.164062 10.96875 -1.96875 C 12.363281 -0.769531 13.929688 -0.171875 15.671875 -0.171875 C 17.453125 -0.171875 19.019531 -0.789062 20.375 -2.03125 C 21.726562 -3.269531 22.773438 -5.003906 23.515625 -7.234375 C 24.253906 -9.472656 24.625 -12.03125 24.625 -14.90625 C 24.625 -17.8125 24.210938 -20.367188 23.390625 -22.578125 C 22.566406 -24.785156 21.457031 -26.488281 20.0625 -27.6875 C 18.664062 -28.882812 17.101562 -29.484375 15.375 -29.484375 Z M 15.375 -29.484375 "/></g></g></g><g fill="#ffffff" fill-opacity="1"><g transform="translate(138.953699, 328.939987)"><g><path d="M 23.203125 -5.359375 C 23.203125 -3.765625 23.300781 -1.976562 23.5 0 C 21.601562 -0.0820312 18.40625 -0.125 13.90625 -0.125 C 8.539062 -0.125 4.492188 -0.0820312 1.765625 0 L 1.765625 -0.84375 C 2.765625 -0.894531 3.492188 -1.003906 3.953125 -1.171875 C 4.421875 -1.335938 4.738281 -1.65625 4.90625 -2.125 C 5.070312 -2.601562 5.15625 -3.375 5.15625 -4.4375 L 5.15625 -25.21875 C 5.15625 -26.28125 5.070312 -27.046875 4.90625 -27.515625 C 4.738281 -27.992188 4.421875 -28.316406 3.953125 -28.484375 C 3.492188 -28.648438 2.765625 -28.765625 1.765625 -28.828125 L 1.765625 -29.65625 C 4.492188 -29.570312 8.539062 -29.53125 13.90625 -29.53125 C 18.007812 -29.53125 20.925781 -29.570312 22.65625 -29.65625 C 22.46875 -27.8125 22.375 -26.164062 22.375 -24.71875 C 22.375 -23.625 22.414062 -22.757812 22.5 -22.125 L 21.53125 -22.125 C 21.332031 -23.9375 21.078125 -25.28125 20.765625 -26.15625 C 20.460938 -27.039062 19.945312 -27.679688 19.21875 -28.078125 C 18.5 -28.484375 17.398438 -28.6875 15.921875 -28.6875 L 12.4375 -28.6875 C 11.4375 -28.6875 10.703125 -28.609375 10.234375 -28.453125 C 9.773438 -28.304688 9.460938 -27.992188 9.296875 -27.515625 C 9.128906 -27.046875 9.046875 -26.28125 9.046875 -25.21875 L 9.046875 -15.328125 L 11.8125 -15.328125 C 12.789062 -15.328125 13.546875 -15.554688 14.078125 -16.015625 C 14.609375 -16.484375 14.960938 -17.03125 15.140625 -17.65625 C 15.328125 -18.28125 15.472656 -19.070312 15.578125 -20.03125 L 15.703125 -20.859375 L 16.671875 -20.859375 C 16.585938 -19.691406 16.546875 -18.378906 16.546875 -16.921875 L 16.546875 -14.90625 C 16.546875 -13.488281 16.628906 -11.507812 16.796875 -8.96875 L 15.828125 -8.96875 C 15.804688 -9.164062 15.722656 -9.84375 15.578125 -11 C 15.441406 -12.15625 15.054688 -13.023438 14.421875 -13.609375 C 13.796875 -14.203125 12.925781 -14.5 11.8125 -14.5 L 9.046875 -14.5 L 9.046875 -4.4375 C 9.046875 -3.375 9.128906 -2.601562 9.296875 -2.125 C 9.460938 -1.65625 9.773438 -1.34375 10.234375 -1.1875 C 10.703125 -1.039062 11.4375 -0.96875 12.4375 -0.96875 L 15.5 -0.96875 C 17.226562 -0.96875 18.546875 -1.195312 19.453125 -1.65625 C 20.359375 -2.113281 21.019531 -2.851562 21.4375 -3.875 C 21.863281 -4.894531 22.175781 -6.394531 22.375 -8.375 L 23.328125 -8.375 C 23.242188 -7.625 23.203125 -6.617188 23.203125 -5.359375 Z M 23.203125 -5.359375 "/></g></g></g><g fill="#ffffff" fill-opacity="1"><g transform="translate(164.467442, 328.939987)"><g><path d="M 28.0625 -28.828125 C 27.082031 -28.765625 26.351562 -28.613281 25.875 -28.375 C 25.40625 -28.144531 25.085938 -27.753906 24.921875 -27.203125 C 24.753906 -26.660156 24.671875 -25.859375 24.671875 -24.796875 L 24.671875 0.203125 L 23.703125 0.203125 L 6.109375 -26.984375 L 6.109375 -4.859375 C 6.109375 -3.765625 6.195312 -2.953125 6.375 -2.421875 C 6.5625 -1.898438 6.921875 -1.519531 7.453125 -1.28125 C 7.984375 -1.039062 8.804688 -0.894531 9.921875 -0.84375 L 9.921875 0 C 8.921875 -0.0820312 7.5 -0.125 5.65625 -0.125 C 3.976562 -0.125 2.679688 -0.0820312 1.765625 0 L 1.765625 -0.84375 C 2.734375 -0.894531 3.457031 -1.039062 3.9375 -1.28125 C 4.414062 -1.519531 4.738281 -1.910156 4.90625 -2.453125 C 5.070312 -2.992188 5.15625 -3.796875 5.15625 -4.859375 L 5.15625 -25.21875 C 5.15625 -26.28125 5.070312 -27.046875 4.90625 -27.515625 C 4.738281 -27.992188 4.421875 -28.316406 3.953125 -28.484375 C 3.492188 -28.648438 2.765625 -28.765625 1.765625 -28.828125 L 1.765625 -29.65625 C 2.679688 -29.570312 3.976562 -29.53125 5.65625 -29.53125 C 6.914062 -29.53125 8.003906 -29.570312 8.921875 -29.65625 L 23.703125 -6.875 L 23.703125 -24.796875 C 23.703125 -25.890625 23.613281 -26.703125 23.4375 -27.234375 C 23.257812 -27.765625 22.90625 -28.144531 22.375 -28.375 C 21.84375 -28.613281 21.015625 -28.765625 19.890625 -28.828125 L 19.890625 -29.65625 C 20.898438 -29.570312 22.328125 -29.53125 24.171875 -29.53125 C 25.847656 -29.53125 27.144531 -29.570312 28.0625 -29.65625 Z M 28.0625 -28.828125 "/></g></g></g><g fill="#ffffff" fill-opacity="1"><g transform="translate(194.044959, 328.939987)"><g><path d="M -0.84375 7.078125 C 1.113281 7.023438 2.5625 6.300781 3.5 4.90625 C 4.4375 3.507812 4.90625 1.148438 4.90625 -2.171875 L 4.90625 -25.21875 C 4.90625 -26.28125 4.820312 -27.046875 4.65625 -27.515625 C 4.488281 -27.992188 4.171875 -28.316406 3.703125 -28.484375 C 3.242188 -28.648438 2.515625 -28.765625 1.515625 -28.828125 L 1.515625 -29.65625 C 2.679688 -29.570312 4.4375 -29.53125 6.78125 -29.53125 C 9.070312 -29.53125 10.875 -29.570312 12.1875 -29.65625 L 12.1875 -28.828125 C 11.1875 -28.765625 10.453125 -28.648438 9.984375 -28.484375 C 9.523438 -28.316406 9.210938 -27.992188 9.046875 -27.515625 C 8.878906 -27.046875 8.796875 -26.28125 8.796875 -25.21875 L 8.796875 -9.890625 C 8.796875 -7.515625 8.753906 -5.410156 8.671875 -3.578125 C 8.585938 -1.753906 8.390625 -0.210938 8.078125 1.046875 C 7.578125 3.085938 6.550781 4.734375 5 5.984375 C 3.457031 7.242188 1.507812 7.875 -0.84375 7.875 Z M -0.84375 7.078125 "/></g></g></g><g fill="#ffffff" fill-opacity="1"><g transform="translate(207.702566, 328.939987)"><g><path d="M 15.546875 -30.25 C 18.191406 -30.25 20.515625 -29.644531 22.515625 -28.4375 C 24.515625 -27.238281 26.066406 -25.5 27.171875 -23.21875 C 28.273438 -20.945312 28.828125 -18.234375 28.828125 -15.078125 C 28.828125 -12.003906 28.257812 -9.28125 27.125 -6.90625 C 25.988281 -4.53125 24.410156 -2.6875 22.390625 -1.375 C 20.367188 -0.0625 18.070312 0.59375 15.5 0.59375 C 12.84375 0.59375 10.515625 -0.00390625 8.515625 -1.203125 C 6.523438 -2.410156 4.976562 -4.148438 3.875 -6.421875 C 2.769531 -8.703125 2.21875 -11.421875 2.21875 -14.578125 C 2.21875 -17.648438 2.78125 -20.375 3.90625 -22.75 C 5.039062 -25.125 6.617188 -26.96875 8.640625 -28.28125 C 10.671875 -29.59375 12.972656 -30.25 15.546875 -30.25 Z M 15.375 -29.484375 C 13.582031 -29.484375 12.007812 -28.863281 10.65625 -27.625 C 9.300781 -26.382812 8.253906 -24.644531 7.515625 -22.40625 C 6.773438 -20.175781 6.40625 -17.625 6.40625 -14.75 C 6.40625 -11.84375 6.816406 -9.285156 7.640625 -7.078125 C 8.460938 -4.867188 9.570312 -3.164062 10.96875 -1.96875 C 12.363281 -0.769531 13.929688 -0.171875 15.671875 -0.171875 C 17.453125 -0.171875 19.019531 -0.789062 20.375 -2.03125 C 21.726562 -3.269531 22.773438 -5.003906 23.515625 -7.234375 C 24.253906 -9.472656 24.625 -12.03125 24.625 -14.90625 C 24.625 -17.8125 24.210938 -20.367188 23.390625 -22.578125 C 22.566406 -24.785156 21.457031 -26.488281 20.0625 -27.6875 C 18.664062 -28.882812 17.101562 -29.484375 15.375 -29.484375 Z M 15.375 -29.484375 "/></g></g></g><g fill="#ffffff" fill-opacity="1"><g transform="translate(238.746379, 328.939987)"><g><path d="M 24.796875 -29.65625 C 24.597656 -27.675781 24.5 -25.890625 24.5 -24.296875 C 24.5 -22.898438 24.539062 -21.753906 24.625 -20.859375 L 23.671875 -20.859375 C 23.441406 -23.015625 23.160156 -24.613281 22.828125 -25.65625 C 22.492188 -26.707031 21.90625 -27.472656 21.0625 -27.953125 C 20.226562 -28.441406 18.945312 -28.6875 17.21875 -28.6875 L 14.953125 -28.6875 L 14.953125 -4.859375 C 14.953125 -3.679688 15.0625 -2.828125 15.28125 -2.296875 C 15.507812 -1.773438 15.898438 -1.414062 16.453125 -1.21875 C 17.015625 -1.019531 17.925781 -0.894531 19.1875 -0.84375 L 19.1875 0 C 17.726562 -0.0820312 15.675781 -0.125 13.03125 -0.125 C 10.238281 -0.125 8.171875 -0.0820312 6.828125 0 L 6.828125 -0.84375 C 8.085938 -0.894531 8.992188 -1.019531 9.546875 -1.21875 C 10.109375 -1.414062 10.5 -1.773438 10.71875 -2.296875 C 10.945312 -2.828125 11.0625 -3.679688 11.0625 -4.859375 L 11.0625 -28.6875 L 8.796875 -28.6875 C 7.066406 -28.6875 5.78125 -28.441406 4.9375 -27.953125 C 4.101562 -27.472656 3.519531 -26.707031 3.1875 -25.65625 C 2.851562 -24.613281 2.570312 -23.015625 2.34375 -20.859375 L 1.375 -20.859375 C 1.46875 -21.753906 1.515625 -22.898438 1.515625 -24.296875 C 1.515625 -25.890625 1.414062 -27.675781 1.21875 -29.65625 C 3.53125 -29.570312 7.46875 -29.53125 13.03125 -29.53125 C 18.5625 -29.53125 22.484375 -29.570312 24.796875 -29.65625 Z M 24.796875 -29.65625 "/></g></g></g><g fill="#ffffff" fill-opacity="1"><g transform="translate(264.76286, 328.939987)"><g><path d="M 15.546875 -30.25 C 18.191406 -30.25 20.515625 -29.644531 22.515625 -28.4375 C 24.515625 -27.238281 26.066406 -25.5 27.171875 -23.21875 C 28.273438 -20.945312 28.828125 -18.234375 28.828125 -15.078125 C 28.828125 -12.003906 28.257812 -9.28125 27.125 -6.90625 C 25.988281 -4.53125 24.410156 -2.6875 22.390625 -1.375 C 20.367188 -0.0625 18.070312 0.59375 15.5 0.59375 C 12.84375 0.59375 10.515625 -0.00390625 8.515625 -1.203125 C 6.523438 -2.410156 4.976562 -4.148438 3.875 -6.421875 C 2.769531 -8.703125 2.21875 -11.421875 2.21875 -14.578125 C 2.21875 -17.648438 2.78125 -20.375 3.90625 -22.75 C 5.039062 -25.125 6.617188 -26.96875 8.640625 -28.28125 C 10.671875 -29.59375 12.972656 -30.25 15.546875 -30.25 Z M 15.375 -29.484375 C 13.582031 -29.484375 12.007812 -28.863281 10.65625 -27.625 C 9.300781 -26.382812 8.253906 -24.644531 7.515625 -22.40625 C 6.773438 -20.175781 6.40625 -17.625 6.40625 -14.75 C 6.40625 -11.84375 6.816406 -9.285156 7.640625 -7.078125 C 8.460938 -4.867188 9.570312 -3.164062 10.96875 -1.96875 C 12.363281 -0.769531 13.929688 -0.171875 15.671875 -0.171875 C 17.453125 -0.171875 19.019531 -0.789062 20.375 -2.03125 C 21.726562 -3.269531 22.773438 -5.003906 23.515625 -7.234375 C 24.253906 -9.472656 24.625 -12.03125 24.625 -14.90625 C 24.625 -17.8125 24.210938 -20.367188 23.390625 -22.578125 C 22.566406 -24.785156 21.457031 -26.488281 20.0625 -27.6875 C 18.664062 -28.882812 17.101562 -29.484375 15.375 -29.484375 Z M 15.375 -29.484375 "/></g></g></g></svg>